<svg width="1056" height="136" viewBox="0 0 1056 136" fill="none" xmlns="http://www.w3.org/2000/svg">
<path d="M527.058 61.587C765.855 61.587 987.194 37.193 1055.68 0.0327148L1021.11 46.7994C1018.39 54.2595 1007.29 65.128 1002.08 69.6297C999.601 81.7202 985.881 94.8181 979.331 99.8558C973.636 120.693 962 122.15 956.894 120.274C947.858 140.983 934.561 135.334 929.042 129.921L882.467 128.474C872.44 134.905 869.021 128.732 868.565 124.841H853.306H202.558H184.95L187.298 128.378C180.724 134.37 174.646 130.874 172.429 128.378L126.256 130.874C110.604 143.524 101.082 129.487 98.278 120.888C86.226 125.049 78.9088 109.029 76.7566 100.499C65.9568 95.1734 56.4993 77.2119 53.1204 68.8969C46.2359 66.6341 9.19042 15.6516 0.587891 1.73804C68.9282 38.9391 288.091 61.587 527.058 61.587Z" fill="url(#paint0_linear_2_10163)" fill-opacity="0.7"/>
<defs>
<linearGradient id="paint0_linear_2_10163" x1="528.27" y1="24.3281" x2="528.27" y2="135.931" gradientUnits="userSpaceOnUse">
<stop offset="0.37" stop-color="#664101" stop-opacity="0"/>
<stop offset="1" stop-color="#664101"/>
</linearGradient>
</defs>
</svg>
